<svg width="42" height="42" viewBox="0 0 42 42" fill="none" xmlns="http://www.w3.org/2000/svg">
<g id="calendar">
<path id="Vector" d="M40.2973 26.3919C40.1468 26.3919 40.0024 26.3321 39.896 26.2257C39.7895 26.1192 39.7297 25.9748 39.7297 25.8243V24.1557C39.7297 24.0051 39.7895 23.8608 39.896 23.7543C40.0024 23.6479 40.1468 23.5881 40.2973 23.5881C40.4478 23.5881 40.5922 23.6479 40.6986 23.7543C40.8051 23.8608 40.8649 24.0051 40.8649 24.1557V25.8243C40.8649 25.9748 40.8051 26.1192 40.6986 26.2257C40.5922 26.3321 40.4478 26.3919 40.2973 26.3919Z" fill="#C5606A"/>
<path id="Vector_2" d="M38.5946 40.8649H3.4054C2.80329 40.8649 2.22584 40.6257 1.80008 40.1999C1.37432 39.7742 1.13513 39.1967 1.13513 38.5946V12.4865C1.13513 12.336 1.19493 12.1916 1.30137 12.0852C1.40781 11.9787 1.55217 11.9189 1.7027 11.9189H40.2973C40.4478 11.9189 40.5922 11.9787 40.6986 12.0852C40.8051 12.1916 40.8649 12.336 40.8649 12.4865V20.1827C40.8649 20.3332 40.8051 20.4776 40.6986 20.584C40.5922 20.6905 40.4478 20.7503 40.2973 20.7503C40.1468 20.7503 40.0024 20.6905 39.896 20.584C39.7895 20.4776 39.7297 20.3332 39.7297 20.1827V13.054H2.27027V38.5946C2.27027 38.8956 2.38986 39.1844 2.60274 39.3973C2.81562 39.6101 3.10435 39.7297 3.4054 39.7297H38.5946C38.8956 39.7297 39.1844 39.6101 39.3973 39.3973C39.6101 39.1844 39.7297 38.8956 39.7297 38.5946V35.4389C39.7297 35.2884 39.7895 35.144 39.896 35.0376C40.0024 34.9311 40.1468 34.8713 40.2973 34.8713C40.4478 34.8713 40.5922 34.9311 40.6986 35.0376C40.8051 35.144 40.8649 35.2884 40.8649 35.4389V38.5946C40.8649 39.1967 40.6257 39.7742 40.1999 40.1999C39.7742 40.6257 39.1967 40.8649 38.5946 40.8649Z" fill="#C5606A"/>
<path id="Vector_3" d="M40.2973 32.0335C40.1468 32.0335 40.0024 31.9737 39.896 31.8673C39.7895 31.7608 39.7297 31.6165 39.7297 31.466V29.7973C39.7297 29.6468 39.7895 29.5024 39.896 29.396C40.0024 29.2895 40.1468 29.2297 40.2973 29.2297C40.4478 29.2297 40.5922 29.2895 40.6986 29.396C40.8051 29.5024 40.8649 29.6468 40.8649 29.7973V31.466C40.8649 31.6165 40.8051 31.7608 40.6986 31.8673C40.5922 31.9737 40.4478 32.0335 40.2973 32.0335Z" fill="#C5606A"/>
<path id="Vector_4" d="M40.2973 13.0541H1.7027C1.55217 13.0541 1.40781 12.9943 1.30137 12.8878C1.19493 12.7814 1.13513 12.637 1.13513 12.4865V3.4054C1.13513 2.80329 1.37432 2.22584 1.80008 1.80008C2.22584 1.37432 2.80329 1.13513 3.4054 1.13513H38.5946C39.1967 1.13513 39.7742 1.37432 40.1999 1.80008C40.6257 2.22584 40.8649 2.80329 40.8649 3.4054V12.4865C40.8649 12.637 40.8051 12.7814 40.6986 12.8878C40.5922 12.9943 40.4478 13.0541 40.2973 13.0541ZM2.27027 11.9189H39.7297V3.4054C39.7297 3.10435 39.6101 2.81562 39.3973 2.60274C39.1844 2.38986 38.8956 2.27027 38.5946 2.27027H3.4054C3.10435 2.27027 2.81562 2.38986 2.60274 2.60274C2.38986 2.81562 2.27027 3.10435 2.27027 3.4054V11.9189Z" fill="#C5606A"/>
<path id="Vector_5" d="M31.7838 9.93244C31.2225 9.93244 30.6738 9.766 30.2072 9.45417C29.7405 9.14235 29.3767 8.69914 29.162 8.18059C28.9472 7.66205 28.891 7.09145 29.0005 6.54096C29.11 5.99048 29.3802 5.48482 29.7771 5.08794C30.174 4.69107 30.6797 4.42079 31.2301 4.31129C31.7806 4.20179 32.3512 4.25799 32.8698 4.47278C33.3883 4.68757 33.8315 5.0513 34.1434 5.51798C34.4552 5.98466 34.6216 6.53333 34.6216 7.0946C34.6207 7.84696 34.3214 8.56826 33.7894 9.10026C33.2574 9.63226 32.5361 9.93154 31.7838 9.93244ZM31.7838 5.3919C31.447 5.3919 31.1178 5.49176 30.8378 5.67885C30.5578 5.86595 30.3396 6.13187 30.2107 6.443C30.0818 6.75413 30.0481 7.09649 30.1138 7.42678C30.1795 7.75707 30.3417 8.06046 30.5798 8.29859C30.8179 8.53672 31.1213 8.69889 31.4516 8.76459C31.7819 8.83028 32.1242 8.79657 32.4354 8.66769C32.7465 8.53882 33.0124 8.32058 33.1995 8.04057C33.3866 7.76056 33.4865 7.43136 33.4865 7.0946C33.4865 6.64301 33.3071 6.20992 32.9878 5.89061C32.6685 5.57129 32.2354 5.3919 31.7838 5.3919Z" fill="#C5606A"/>
<path id="Vector_6" d="M10.2162 9.93244C9.65494 9.93244 9.10627 9.766 8.63959 9.45417C8.17291 9.14235 7.80918 8.69914 7.59439 8.18059C7.3796 7.66205 7.3234 7.09145 7.4329 6.54096C7.5424 5.99048 7.81268 5.48482 8.20956 5.08794C8.60644 4.69107 9.11209 4.42079 9.66258 4.31129C10.2131 4.20179 10.7837 4.25799 11.3022 4.47278C11.8208 4.68757 12.264 5.0513 12.5758 5.51798C12.8876 5.98466 13.054 6.53333 13.054 7.0946C13.0531 7.84696 12.7539 8.56826 12.2219 9.10026C11.6899 9.63226 10.9686 9.93154 10.2162 9.93244ZM10.2162 5.3919C9.87945 5.3919 9.55025 5.49176 9.27024 5.67885C8.99023 5.86595 8.77199 6.13187 8.64312 6.443C8.51425 6.75413 8.48053 7.09649 8.54623 7.42678C8.61192 7.75707 8.77409 8.06046 9.01222 8.29859C9.25035 8.53672 9.55374 8.69889 9.88403 8.76459C10.2143 8.83028 10.5567 8.79657 10.8678 8.66769C11.1789 8.53882 11.4449 8.32058 11.632 8.04057C11.8191 7.76056 11.9189 7.43136 11.9189 7.0946C11.9189 6.64301 11.7395 6.20992 11.4202 5.89061C11.1009 5.57129 10.6678 5.3919 10.2162 5.3919Z" fill="#C5606A"/>
<path id="Vector_7" d="M34.3702 21.7276H31.3717C31.0707 21.7276 30.7819 21.608 30.5691 21.3951C30.3562 21.1823 30.2366 20.8935 30.2366 20.5925V17.5946C30.2366 17.2935 30.3562 17.0048 30.5691 16.7919C30.7819 16.5791 31.0707 16.4595 31.3717 16.4595H34.3702C34.6712 16.4595 34.96 16.5791 35.1728 16.7919C35.3857 17.0048 35.5053 17.2935 35.5053 17.5946V20.5925C35.5053 20.8935 35.3857 21.1823 35.1728 21.3951C34.96 21.608 34.6712 21.7276 34.3702 21.7276ZM31.3717 17.5946V20.5925H34.3702V17.5946H31.3717Z" fill="#C5606A"/>
<path id="Vector_8" d="M26.4555 21.7276H23.4581C23.1571 21.7276 22.8683 21.608 22.6555 21.3951C22.4426 21.1823 22.323 20.8935 22.323 20.5925V17.5946C22.323 17.2935 22.4426 17.0048 22.6555 16.7919C22.8683 16.5791 23.1571 16.4595 23.4581 16.4595H26.4555C26.7565 16.4595 27.0452 16.5791 27.2581 16.7919C27.471 17.0048 27.5906 17.2935 27.5906 17.5946V20.5925C27.5906 20.8935 27.471 21.1823 27.2581 21.3951C27.0452 21.608 26.7565 21.7276 26.4555 21.7276ZM23.4581 17.5946V20.5925H26.4555V17.5946H23.4581Z" fill="#C5606A"/>
<path id="Vector_9" d="M18.5419 21.7276H15.5445C15.2435 21.7276 14.9548 21.608 14.7419 21.3951C14.529 21.1823 14.4094 20.8935 14.4094 20.5925V17.5946C14.4094 17.2935 14.529 17.0048 14.7419 16.7919C14.9548 16.5791 15.2435 16.4595 15.5445 16.4595H18.5419C18.8429 16.4595 19.1317 16.5791 19.3445 16.7919C19.5574 17.0048 19.677 17.2935 19.677 17.5946V20.5925C19.677 20.8935 19.5574 21.1823 19.3445 21.3951C19.1317 21.608 18.8429 21.7276 18.5419 21.7276ZM15.5445 17.5946V20.5925H18.5419V17.5946H15.5445Z" fill="#C5606A"/>
<path id="Vector_10" d="M34.3702 29.026H31.3717C31.0707 29.026 30.7819 28.9064 30.5691 28.6935C30.3562 28.4806 30.2366 28.1919 30.2366 27.8908V24.8929C30.2366 24.5919 30.3562 24.3032 30.5691 24.0903C30.7819 23.8774 31.0707 23.7578 31.3717 23.7578H34.3702C34.6712 23.7578 34.96 23.8774 35.1728 24.0903C35.3857 24.3032 35.5053 24.5919 35.5053 24.8929V27.8908C35.5053 28.1919 35.3857 28.4806 35.1728 28.6935C34.96 28.9064 34.6712 29.026 34.3702 29.026ZM31.3717 24.8929V27.8908H34.3702V24.8929H31.3717Z" fill="#C5606A"/>
<path id="Vector_11" d="M26.4555 29.026H23.4581C23.1571 29.026 22.8683 28.9064 22.6555 28.6935C22.4426 28.4806 22.323 28.1919 22.323 27.8908V24.8929C22.323 24.5919 22.4426 24.3032 22.6555 24.0903C22.8683 23.8774 23.1571 23.7578 23.4581 23.7578H26.4555C26.7565 23.7578 27.0452 23.8774 27.2581 24.0903C27.471 24.3032 27.5906 24.5919 27.5906 24.8929V27.8908C27.5906 28.1919 27.471 28.4806 27.2581 28.6935C27.0452 28.9064 26.7565 29.026 26.4555 29.026ZM23.4581 24.8929V27.8908H26.4555V24.8929H23.4581Z" fill="#C5606A"/>
<path id="Vector_12" d="M18.5419 29.026H15.5445C15.2435 29.026 14.9548 28.9064 14.7419 28.6935C14.529 28.4806 14.4094 28.1919 14.4094 27.8908V24.8929C14.4094 24.5919 14.529 24.3032 14.7419 24.0903C14.9548 23.8774 15.2435 23.7578 15.5445 23.7578H18.5419C18.8429 23.7578 19.1317 23.8774 19.3445 24.0903C19.5574 24.3032 19.677 24.5919 19.677 24.8929V27.8908C19.677 28.1919 19.5574 28.4806 19.3445 28.6935C19.1317 28.9064 18.8429 29.026 18.5419 29.026ZM15.5445 24.8929V27.8908H18.5419V24.8929H15.5445Z" fill="#C5606A"/>
<path id="Vector_13" d="M10.6283 29.026H7.62981C7.32875 29.026 7.04003 28.9064 6.82715 28.6935C6.61427 28.4806 6.49467 28.1919 6.49467 27.8908V24.8929C6.49467 24.5919 6.61427 24.3032 6.82715 24.0903C7.04003 23.8774 7.32875 23.7578 7.62981 23.7578H10.6283C10.9293 23.7578 11.2181 23.8774 11.4309 24.0903C11.6438 24.3032 11.7634 24.5919 11.7634 24.8929V27.8908C11.7634 28.1919 11.6438 28.4806 11.4309 28.6935C11.2181 28.9064 10.9293 29.026 10.6283 29.026ZM7.62981 24.8929V27.8908H10.6283V24.8929H7.62981Z" fill="#C5606A"/>
<path id="Vector_14" d="M26.4555 36.3243H23.4581C23.1571 36.3243 22.8683 36.2047 22.6555 35.9918C22.4426 35.779 22.323 35.4902 22.323 35.1892V32.1913C22.323 31.8902 22.4426 31.6015 22.6555 31.3886C22.8683 31.1757 23.1571 31.0562 23.4581 31.0562H26.4555C26.7565 31.0562 27.0452 31.1757 27.2581 31.3886C27.471 31.6015 27.5906 31.8902 27.5906 32.1913V35.1892C27.5906 35.4902 27.471 35.779 27.2581 35.9918C27.0452 36.2047 26.7565 36.3243 26.4555 36.3243ZM23.4581 32.1913V35.1892H26.4555V32.1913H23.4581Z" fill="#C5606A"/>
<path id="Vector_15" d="M18.5419 36.3243H15.5445C15.2435 36.3243 14.9548 36.2047 14.7419 35.9918C14.529 35.779 14.4094 35.4902 14.4094 35.1892V32.1913C14.4094 31.8902 14.529 31.6015 14.7419 31.3886C14.9548 31.1757 15.2435 31.0562 15.5445 31.0562H18.5419C18.8429 31.0562 19.1317 31.1757 19.3445 31.3886C19.5574 31.6015 19.677 31.8902 19.677 32.1913V35.1892C19.677 35.4902 19.5574 35.779 19.3445 35.9918C19.1317 36.2047 18.8429 36.3243 18.5419 36.3243ZM15.5445 32.1913V35.1892H18.5419V32.1913H15.5445Z" fill="#C5606A"/>
<path id="Vector_16" d="M10.6283 36.3243H7.62981C7.32875 36.3243 7.04003 36.2047 6.82715 35.9918C6.61427 35.779 6.49467 35.4902 6.49467 35.1892V32.1913C6.49467 31.8902 6.61427 31.6015 6.82715 31.3886C7.04003 31.1757 7.32875 31.0562 7.62981 31.0562H10.6283C10.9293 31.0562 11.2181 31.1757 11.4309 31.3886C11.6438 31.6015 11.7634 31.8902 11.7634 32.1913V35.1892C11.7634 35.4902 11.6438 35.779 11.4309 35.9918C11.2181 36.2047 10.9293 36.3243 10.6283 36.3243ZM7.62981 32.1913V35.1892H10.6283V32.1913H7.62981Z" fill="#C5606A"/>
</g>
</svg>
