<svg width="42" height="42" viewBox="0 0 42 42" fill="none" xmlns="http://www.w3.org/2000/svg">
<g id="gear">
<path id="Vector" d="M23.2487 40.8649H18.7513C18.4916 40.8638 18.2401 40.7742 18.0382 40.6108C17.8364 40.4475 17.6963 40.2201 17.6411 39.9664L17.1303 37.5713C15.3217 37.1514 13.5947 36.4361 12.0188 35.4542L9.96194 36.7863C9.74363 36.9264 9.48411 36.9878 9.22617 36.9606C8.96823 36.9334 8.72727 36.819 8.54302 36.6365L5.36465 33.4581C5.18209 33.2739 5.06773 33.033 5.04039 32.775C5.01305 32.5171 5.07437 32.2576 5.21424 32.0392L6.54632 29.9818C5.56518 28.4068 4.85013 26.681 4.42986 24.8736L2.03416 24.3628C1.77964 24.3076 1.55167 24.167 1.38813 23.9643C1.22458 23.7617 1.13531 23.5091 1.13513 23.2487V18.7513C1.13618 18.4916 1.22579 18.2401 1.38915 18.0382C1.55251 17.8364 1.77984 17.6963 2.03359 17.6411L4.42873 17.1303C4.84869 15.322 5.56376 13.5952 6.54519 12.0194L5.21367 9.96194C5.07373 9.7436 5.01232 9.4841 5.03955 9.22618C5.06679 8.96827 5.18105 8.72733 5.36351 8.54302L8.54189 5.36465C8.72608 5.182 8.96705 5.06761 9.22502 5.04037C9.48298 5.01313 9.74253 5.07466 9.96081 5.21481L12.0171 6.54689C13.5933 5.56387 15.3209 4.84764 17.1303 4.42702L17.6411 2.03189C17.6966 1.77846 17.8369 1.55151 18.0387 1.38849C18.2405 1.22546 18.4919 1.1361 18.7513 1.13513H23.2487C23.5084 1.13618 23.7599 1.22579 23.9618 1.38915C24.1636 1.55251 24.3037 1.77984 24.3589 2.03359L24.8697 4.42873C26.6783 4.84863 28.4053 5.5639 29.9812 6.54575L32.0381 5.21367C32.2563 5.07342 32.5159 5.01183 32.7739 5.03907C33.0319 5.06632 33.2728 5.18077 33.457 5.36351L36.6353 8.54189C36.8179 8.72612 36.9323 8.96703 36.9596 9.22495C36.9869 9.48286 36.9256 9.7424 36.7858 9.96081L35.4537 12.0182C36.4361 13.5941 37.1522 15.321 37.573 17.1298L39.9687 17.6406C40.2221 17.6962 40.449 17.8366 40.6119 18.0385C40.7748 18.2404 40.8641 18.4918 40.8649 18.7513V23.2487C40.8638 23.5083 40.7743 23.7598 40.6111 23.9616C40.4478 24.1635 40.2206 24.3036 39.967 24.3589L37.5713 24.8697C37.151 26.677 36.4359 28.4028 35.4548 29.9778L36.7863 32.0346C36.9263 32.253 36.9877 32.5125 36.9604 32.7704C36.9332 33.0283 36.819 33.2693 36.6365 33.4536L33.4581 36.6319C33.2739 36.8146 33.0329 36.929 32.775 36.9562C32.517 36.9835 32.2575 36.9219 32.0392 36.7818L29.9829 35.4497C28.407 36.4315 26.68 37.1468 24.8714 37.5667L24.3606 39.9619C24.3062 40.2167 24.1663 40.4453 23.964 40.6096C23.7617 40.7739 23.5093 40.864 23.2487 40.8649ZM12.016 34.2124C12.1258 34.2125 12.2333 34.2444 12.3253 34.3044C13.9702 35.3792 15.8013 36.1374 17.7246 36.54C17.8323 36.5625 17.9313 36.6158 18.0093 36.6935C18.0872 36.7712 18.141 36.8699 18.1639 36.9776L18.7507 39.7297H23.2487L23.8378 36.9776C23.8607 36.8699 23.9144 36.7712 23.9924 36.6935C24.0704 36.6158 24.1694 36.5625 24.2771 36.54C26.2004 36.1374 28.0315 35.3792 29.6764 34.3044C29.7684 34.2446 29.8758 34.2128 29.9854 34.2128C30.0951 34.2128 30.2025 34.2446 30.2945 34.3044L32.6573 35.8368L35.8356 32.6584L34.3032 30.2956C34.2435 30.2036 34.2117 30.0963 34.2117 29.9866C34.2117 29.8769 34.2435 29.7695 34.3032 29.6775C35.3781 28.0326 36.1365 26.2015 36.5394 24.2783C36.5617 24.1703 36.615 24.0711 36.6927 23.9929C36.7704 23.9147 36.8692 23.8608 36.977 23.8378L39.7297 23.2487V18.7513L36.977 18.1622C36.8695 18.1391 36.7711 18.0853 36.6936 18.0073C36.6161 17.9293 36.563 17.8305 36.5406 17.7229C36.1376 15.7996 35.3792 13.9685 34.3044 12.3236C34.2446 12.2316 34.2128 12.1242 34.2128 12.0146C34.2128 11.9049 34.2446 11.7975 34.3044 11.7055L35.8368 9.34329L32.6584 6.16492L30.2962 7.69735C30.2042 7.75708 30.0968 7.78886 29.9871 7.78886C29.8775 7.78886 29.7701 7.75708 29.6781 7.69735C28.0323 6.62153 26.2 5.86273 24.2754 5.46C24.168 5.43723 24.0694 5.38376 23.9917 5.30609C23.9141 5.22841 23.8606 5.12987 23.8378 5.0224L23.2493 2.27027H18.7513L18.1622 5.0224C18.1393 5.13009 18.0855 5.22879 18.0075 5.30649C17.9296 5.38419 17.8306 5.43752 17.7229 5.46C15.7996 5.86261 13.9685 6.62082 12.3236 7.69565C12.2316 7.75537 12.1242 7.78716 12.0146 7.78716C11.9049 7.78716 11.7975 7.75537 11.7055 7.69565L9.34273 6.16321L6.16435 9.34159L7.69678 11.7044C7.75651 11.7964 7.78829 11.9037 7.78829 12.0134C7.78829 12.1231 7.75651 12.2305 7.69678 12.3225C6.62192 13.9674 5.86353 15.7985 5.46056 17.7217C5.43829 17.8297 5.38504 17.9289 5.30733 18.0071C5.22962 18.0853 5.13081 18.1392 5.02297 18.1622L2.27027 18.7513V23.2487L5.02297 23.8378C5.13045 23.8609 5.22891 23.9147 5.30639 23.9927C5.38387 24.0707 5.43704 24.1695 5.45943 24.2771C5.86239 26.2004 6.62078 28.0315 7.69565 29.6764C7.75537 29.7684 7.78716 29.8758 7.78716 29.9854C7.78716 30.0951 7.75537 30.2025 7.69565 30.2945L6.16321 32.6567L9.34159 35.8351L11.7038 34.3026C11.7968 34.2428 11.9053 34.2114 12.016 34.2124Z" fill="#C5606A"/>
<path id="Vector_2" d="M28.963 13.0257C28.818 13.0257 28.6785 12.9703 28.5731 12.8707C28.1743 12.4952 27.7472 12.151 27.2955 11.8412C27.2341 11.7988 27.1817 11.7447 27.1413 11.6821C27.1008 11.6195 27.0731 11.5495 27.0597 11.4762C27.0463 11.4029 27.0474 11.3276 27.0631 11.2547C27.0788 11.1818 27.1087 11.1127 27.151 11.0514C27.1934 10.99 27.2474 10.9377 27.3101 10.8972C27.3727 10.8567 27.4427 10.829 27.516 10.8156C27.5893 10.8022 27.6646 10.8033 27.7375 10.819C27.8104 10.8347 27.8795 10.8646 27.9408 10.9069C28.4403 11.2497 28.9126 11.6306 29.3535 12.0461C29.4359 12.1242 29.4931 12.2252 29.5175 12.3361C29.5419 12.4471 29.5324 12.5628 29.4904 12.6683C29.4483 12.7738 29.3756 12.8642 29.2816 12.9279C29.1875 12.9917 29.0766 13.0257 28.963 13.0257Z" fill="#C5606A"/>
<path id="Vector_3" d="M21 33.2481C18.0499 33.2477 15.1991 32.1826 12.9714 30.2487C10.7438 28.3147 9.28888 25.6417 8.87413 22.721C8.45938 19.8002 9.11265 16.8279 10.7139 14.3502C12.3151 11.8725 14.7567 10.056 17.59 9.23432C17.6625 9.21041 17.7391 9.20135 17.8151 9.2077C17.8912 9.21405 17.9652 9.23567 18.0327 9.27128C18.1002 9.30688 18.1598 9.35573 18.208 9.41491C18.2562 9.47409 18.2919 9.54238 18.3131 9.61569C18.3343 9.68901 18.3405 9.76585 18.3313 9.84161C18.3221 9.91737 18.2978 9.9905 18.2597 10.0566C18.2216 10.1228 18.1705 10.1805 18.1096 10.2265C18.0487 10.2724 17.9791 10.3056 17.905 10.3241C15.5965 11.0017 13.5686 12.4072 12.1238 14.331C10.6789 16.2548 9.89433 18.594 9.88701 21C9.88744 22.6604 10.2599 24.2997 10.9771 25.7972C11.6943 27.2948 12.738 28.6126 14.0314 29.6538C15.3248 30.695 16.8351 31.4331 18.4513 31.8139C20.0675 32.1947 21.7485 32.2085 23.3707 31.8543C24.9929 31.5001 26.5151 30.7869 27.8254 29.7671C29.1358 28.7472 30.201 27.4467 30.9427 25.9612C31.6843 24.4756 32.0837 22.8427 32.1114 21.1825C32.1391 19.5223 31.7944 17.877 31.1027 16.3675C31.0715 16.2998 31.0539 16.2265 31.051 16.152C31.048 16.0774 31.0598 16.003 31.0856 15.933C31.1115 15.8631 31.1508 15.7988 31.2015 15.7441C31.2521 15.6893 31.313 15.645 31.3808 15.6138C31.4485 15.5826 31.5218 15.565 31.5963 15.562C31.6709 15.5591 31.7453 15.5709 31.8153 15.5967C31.8852 15.6226 31.9495 15.6619 32.0042 15.7126C32.059 15.7632 32.1033 15.8241 32.1345 15.8919C32.9902 17.7581 33.3632 19.8095 33.2191 21.8575C33.075 23.9055 32.4185 25.8845 31.3099 27.6125C30.2013 29.3406 28.6762 30.7623 26.8747 31.747C25.0732 32.7317 23.0531 33.2479 21 33.2481Z" fill="#C5606A"/>
<path id="Vector_4" d="M24.003 10.2786C23.9522 10.2788 23.9016 10.2721 23.8526 10.2588C23.3316 10.1183 22.8002 10.0194 22.2634 9.96308C22.1154 9.94484 21.9805 9.86905 21.8879 9.75211C21.7953 9.63517 21.7524 9.48647 21.7686 9.33818C21.7848 9.18989 21.8587 9.05394 21.9744 8.95973C22.09 8.86552 22.2381 8.82062 22.3866 8.83475C22.9819 8.89774 23.5714 9.00762 24.1495 9.16338C24.2822 9.19945 24.3973 9.28251 24.4734 9.3971C24.5495 9.5117 24.5814 9.65003 24.5632 9.78637C24.5449 9.92272 24.4778 10.0478 24.3742 10.1383C24.2707 10.2289 24.1377 10.2787 24.0002 10.2786H24.003Z" fill="#C5606A"/>
<path id="Vector_5" d="M30.7173 28.0492C30.6309 28.0493 30.5455 28.0297 30.4678 27.9918C30.3901 27.954 30.3221 27.8988 30.2689 27.8307C29.1678 26.4242 27.7609 25.2868 26.155 24.5045C24.5491 23.7223 22.7863 23.3158 21 23.3158C19.2137 23.3158 17.4509 23.7223 15.845 24.5045C14.2391 25.2868 12.8322 26.4242 11.731 27.8307C11.6385 27.9494 11.5025 28.0266 11.3531 28.0451C11.2036 28.0636 11.0529 28.022 10.9342 27.9294C10.8154 27.8369 10.7383 27.7009 10.7198 27.5515C10.7012 27.402 10.7428 27.2513 10.8354 27.1326C12.0429 25.59 13.5856 24.3425 15.3467 23.4845C17.1078 22.6266 19.041 22.1807 21 22.1807C22.9589 22.1807 24.8922 22.6266 26.6533 23.4845C28.4144 24.3425 29.9571 25.59 31.1646 27.1326C31.2299 27.2164 31.2704 27.3169 31.2815 27.4226C31.2926 27.5283 31.2737 27.635 31.2271 27.7305C31.1805 27.826 31.108 27.9066 31.0179 27.9629C30.9277 28.0192 30.8236 28.0491 30.7173 28.0492Z" fill="#C5606A"/>
<path id="Vector_6" d="M21 23.3134C20.1322 23.3135 19.2839 23.0563 18.5624 22.5743C17.8408 22.0923 17.2784 21.4071 16.9462 20.6054C16.6141 19.8038 16.5271 18.9216 16.6964 18.0705C16.8656 17.2194 17.2834 16.4376 17.8969 15.824C18.5105 15.2104 19.2922 14.7925 20.1433 14.6231C20.9944 14.4538 21.8765 14.5407 22.6782 14.8727C23.4799 15.2048 24.1652 15.7671 24.6473 16.4886C25.1294 17.2101 25.3867 18.0584 25.3867 18.9261C25.3855 20.0892 24.923 21.2044 24.1006 22.0269C23.2782 22.8494 22.1631 23.312 21 23.3134ZM21 15.6739C20.3567 15.6738 19.7279 15.8645 19.193 16.2218C18.6581 16.579 18.2412 17.0869 17.995 17.6812C17.7487 18.2754 17.6843 18.9293 17.8097 19.5602C17.9351 20.1911 18.2448 20.7706 18.6996 21.2255C19.1544 21.6804 19.7339 21.9902 20.3647 22.1157C20.9956 22.2413 21.6495 22.1769 22.2438 21.9308C22.8381 21.6846 23.3461 21.2678 23.7035 20.733C24.0608 20.1981 24.2516 19.5693 24.2516 18.9261C24.2507 18.064 23.9078 17.2374 23.2983 16.6277C22.6887 16.018 21.8621 15.675 21 15.6739Z" fill="#C5606A"/>
</g>
</svg>
