<svg width="32" height="32" viewBox="0 0 32 32" fill="none" xmlns="http://www.w3.org/2000/svg">
<g id="Group 14877">
<circle id="Ellipse 6" cx="16" cy="16" r="16" fill="#F20000"/>
<g id="vuesax/bold/trash">
<g id="trash">
<path id="Vector" d="M21.8049 11.6673C20.7745 11.5649 19.7441 11.4881 18.7073 11.4305V11.4241L18.5665 10.5921C18.4705 10.0033 18.3297 9.12006 16.8321 9.12006H15.1553C13.6641 9.12006 13.5233 9.96486 13.4209 10.5857L13.2865 11.4049C12.6913 11.4433 12.0961 11.4817 11.5009 11.5393L10.1953 11.6673C9.9265 11.6929 9.7345 11.9297 9.7601 12.1921C9.7857 12.4545 10.0161 12.6465 10.2849 12.6209L11.5905 12.4929C14.9441 12.1601 18.3233 12.2881 21.7153 12.6273C21.7345 12.6273 21.7473 12.6273 21.7665 12.6273C22.0097 12.6273 22.2209 12.4417 22.2465 12.1921C22.2657 11.9297 22.0737 11.6929 21.8049 11.6673Z" fill="white"/>
<path id="Vector_2" d="M20.6272 13.5296C20.4736 13.3696 20.2624 13.28 20.0448 13.28H11.9552C11.7376 13.28 11.52 13.3696 11.3728 13.5296C11.2256 13.6896 11.1424 13.9072 11.1552 14.1312L11.552 20.6976C11.6224 21.6704 11.712 22.8864 13.9456 22.8864H18.0544C20.288 22.8864 20.3776 21.6768 20.448 20.6976L20.8448 14.1376C20.8576 13.9072 20.7744 13.6896 20.6272 13.5296ZM17.0624 19.68H14.9312C14.6688 19.68 14.4512 19.4624 14.4512 19.2C14.4512 18.9376 14.6688 18.72 14.9312 18.72H17.0624C17.3248 18.72 17.5424 18.9376 17.5424 19.2C17.5424 19.4624 17.3248 19.68 17.0624 19.68ZM17.6 17.12H14.4C14.1376 17.12 13.92 16.9024 13.92 16.64C13.92 16.3776 14.1376 16.16 14.4 16.16H17.6C17.8624 16.16 18.08 16.3776 18.08 16.64C18.08 16.9024 17.8624 17.12 17.6 17.12Z" fill="white"/>
</g>
</g>
</g>
</svg>
