<svg width="42" height="42" viewBox="0 0 42 42" fill="none" xmlns="http://www.w3.org/2000/svg">
<g id="rating">
<path id="Vector" d="M30.1265 32.2435C30.051 32.2435 29.9763 32.2284 29.9067 32.1992C29.8371 32.17 29.7741 32.1271 29.7212 32.0732C29.4667 31.8143 29.1855 31.583 28.8824 31.3831C28.764 31.2973 28.6833 31.1691 28.6571 31.0253C28.6308 30.8815 28.6611 30.7331 28.7416 30.611C28.8221 30.489 28.9466 30.4027 29.0891 30.3702C29.2316 30.3376 29.3812 30.3614 29.5067 30.4364C29.8757 30.6807 30.2181 30.963 30.5283 31.2787C30.6066 31.3585 30.6595 31.4596 30.6805 31.5694C30.7015 31.6792 30.6896 31.7927 30.6463 31.8957C30.603 31.9988 30.5303 32.0867 30.4372 32.1486C30.3441 32.2105 30.2348 32.2435 30.1231 32.2435H30.1265Z" fill="#C5606A"/>
<path id="Vector_2" d="M31.727 40.8649H10.2049C10.0543 40.8649 9.90998 40.8051 9.80354 40.6986C9.6971 40.5922 9.6373 40.4478 9.6373 40.2973V35.6149C9.6391 33.9671 10.2945 32.3874 11.4596 31.2223C12.6247 30.0572 14.2044 29.4018 15.8522 29.4H26.057C26.2076 29.4 26.3519 29.4598 26.4584 29.5662C26.5648 29.6727 26.6246 29.817 26.6246 29.9676C26.6246 30.1181 26.5648 30.2625 26.4584 30.3689C26.3519 30.4753 26.2076 30.5351 26.057 30.5351H15.8522C14.5054 30.5366 13.2142 31.0723 12.2619 32.0246C11.3096 32.9769 10.7739 34.2681 10.7724 35.6149V39.7297H31.1595V35.6149C31.1606 35.2184 31.1144 34.8233 31.0221 34.4377C31.0024 34.3647 30.9976 34.2885 31.0078 34.2136C31.018 34.1386 31.043 34.0665 31.0815 34.0014C31.12 33.9363 31.1711 33.8795 31.2318 33.8345C31.2925 33.7894 31.3616 33.7569 31.435 33.7389C31.5085 33.7209 31.5848 33.7177 31.6595 33.7296C31.7341 33.7415 31.8057 33.7682 31.8699 33.8082C31.9341 33.8481 31.9897 33.9005 32.0334 33.9622C32.0771 34.0239 32.108 34.0937 32.1243 34.1676C32.2381 34.6408 32.2953 35.1259 32.2946 35.6126V40.2973C32.2946 40.4478 32.2348 40.5922 32.1284 40.6986C32.0219 40.8051 31.8776 40.8649 31.727 40.8649Z" fill="#C5606A"/>
<path id="Vector_3" d="M20.9648 27.2398C19.7884 27.2398 18.6384 26.891 17.6602 26.2374C16.6821 25.5838 15.9197 24.6549 15.4695 23.568C15.0193 22.4811 14.9015 21.2851 15.131 20.1313C15.3605 18.9775 15.927 17.9176 16.7589 17.0858C17.5907 16.2539 18.6506 15.6874 19.8044 15.4579C20.9582 15.2284 22.1542 15.3462 23.241 15.7964C24.3279 16.2466 25.2569 17.009 25.9105 17.9871C26.5641 18.9653 26.9129 20.1153 26.9129 21.2917C26.9113 22.8688 26.2841 24.3807 25.1689 25.4959C24.0538 26.611 22.5418 27.2382 20.9648 27.2398ZM20.9648 16.4788C20.0129 16.4788 19.0823 16.761 18.2909 17.2899C17.4994 17.8188 16.8825 18.5704 16.5182 19.4499C16.1539 20.3293 16.0586 21.2971 16.2443 22.2307C16.43 23.1643 16.8884 24.0219 17.5615 24.695C18.2346 25.3681 19.0922 25.8265 20.0258 26.0122C20.9595 26.1979 21.9272 26.1026 22.8066 25.7383C23.6861 25.3741 24.4378 24.7572 24.9666 23.9657C25.4955 23.1742 25.7778 22.2437 25.7778 21.2917C25.7764 20.0157 25.2689 18.7923 24.3666 17.8899C23.4643 16.9876 22.2409 16.4801 20.9648 16.4788Z" fill="#C5606A"/>
<path id="Vector_4" d="M26.4941 40.8649H15.4378C15.2873 40.8649 15.1429 40.8051 15.0365 40.6986C14.9301 40.5922 14.8703 40.4478 14.8703 40.2973V37.0576C14.8703 36.9071 14.9301 36.7627 15.0365 36.6563C15.1429 36.5498 15.2873 36.4901 15.4378 36.4901C15.5884 36.4901 15.7327 36.5498 15.8392 36.6563C15.9456 36.7627 16.0054 36.9071 16.0054 37.0576V39.7297H25.9265V37.0576C25.9265 36.9071 25.9863 36.7627 26.0927 36.6563C26.1992 36.5498 26.3435 36.4901 26.4941 36.4901C26.6446 36.4901 26.7889 36.5498 26.8954 36.6563C27.0018 36.7627 27.0616 36.9071 27.0616 37.0576V40.2973C27.0616 40.4478 27.0018 40.5922 26.8954 40.6986C26.7889 40.8051 26.6446 40.8649 26.4941 40.8649Z" fill="#C5606A"/>
<path id="Vector_5" d="M38.3 17.0838C38.2081 17.0837 38.1175 17.0613 38.0361 17.0185L35.1035 15.477L32.1714 17.0185C32.0777 17.0679 31.972 17.0901 31.8663 17.0826C31.7605 17.075 31.659 17.038 31.5733 16.9758C31.4875 16.9135 31.4209 16.8285 31.381 16.7303C31.341 16.6321 31.3294 16.5247 31.3473 16.4203L31.9075 13.1551L29.5357 10.8405C29.4598 10.7667 29.4061 10.673 29.3806 10.5702C29.3552 10.4675 29.359 10.3596 29.3917 10.2589C29.4243 10.1581 29.4845 10.0685 29.5654 10.0002C29.6463 9.93189 29.7447 9.88757 29.8495 9.87226L33.1284 9.39551L34.5944 6.42486C34.6466 6.33624 34.721 6.26277 34.8103 6.21174C34.8996 6.1607 35.0006 6.13385 35.1035 6.13385C35.2063 6.13385 35.3074 6.1607 35.3967 6.21174C35.486 6.26277 35.5604 6.33624 35.6126 6.42486L37.0786 9.39551L40.3575 9.87226C40.4623 9.88749 40.5608 9.93174 40.6418 10C40.7227 10.0683 40.783 10.1579 40.8157 10.2586C40.8484 10.3594 40.8523 10.4673 40.8269 10.5701C40.8015 10.673 40.7478 10.7666 40.6719 10.8405L38.2995 13.1528L38.8597 16.418C38.8736 16.4995 38.8696 16.5831 38.8479 16.6628C38.8263 16.7426 38.7874 16.8167 38.7341 16.8799C38.6808 16.9431 38.6143 16.9939 38.5394 17.0287C38.4644 17.0635 38.3827 17.0815 38.3 17.0815V17.0838ZM35.1035 14.2681C35.1955 14.2679 35.2861 14.2903 35.3674 14.3333L37.5463 15.4787L37.1297 13.054C37.1142 12.9632 37.121 12.87 37.1496 12.7823C37.1781 12.6947 37.2276 12.6154 37.2937 12.5512L39.056 10.8332L36.62 10.4796C36.529 10.4663 36.4425 10.4312 36.368 10.3771C36.2936 10.323 36.2334 10.2516 36.1927 10.1691L35.1035 7.96183L34.0143 10.1668C33.9736 10.2493 33.9134 10.3207 33.839 10.3748C33.7645 10.4289 33.678 10.4641 33.587 10.4773L31.151 10.8309L32.9138 12.5489C32.9798 12.6132 33.0292 12.6925 33.0577 12.7801C33.0862 12.8678 33.0929 12.961 33.0773 13.0518L32.6607 15.4776L34.8396 14.3322C34.9209 14.2892 35.0115 14.2668 35.1035 14.2669V14.2681Z" fill="#C5606A"/>
<path id="Vector_6" d="M24.1965 12.1079C24.1046 12.1079 24.0141 12.0857 23.9326 12.0432L21 10.5L18.0674 12.0421C17.9736 12.0914 17.868 12.1134 17.7624 12.1058C17.6567 12.0982 17.5554 12.0612 17.4697 11.9989C17.384 11.9367 17.3174 11.8517 17.2775 11.7536C17.2376 11.6555 17.2259 11.5482 17.2438 11.4439L17.804 8.17808L15.4316 5.86581C15.3557 5.7919 15.302 5.69823 15.2766 5.5954C15.2512 5.49256 15.255 5.38467 15.2878 5.28392C15.3205 5.18317 15.3807 5.09358 15.4617 5.0253C15.5427 4.95702 15.6412 4.91276 15.746 4.89754L19.0249 4.42135L20.4892 1.45184C20.5414 1.36321 20.6158 1.28975 20.7051 1.23871C20.7944 1.18767 20.8954 1.16083 20.9983 1.16083C21.1011 1.16083 21.2022 1.18767 21.2915 1.23871C21.3808 1.28975 21.4552 1.36321 21.5074 1.45184L22.9751 4.42248L26.254 4.89867C26.3588 4.9139 26.4573 4.95815 26.5383 5.02643C26.6192 5.09472 26.6795 5.1843 26.7122 5.28505C26.7449 5.3858 26.7488 5.4937 26.7234 5.59653C26.698 5.69937 26.6443 5.79304 26.5684 5.86694L24.196 8.17921L24.7561 11.445C24.77 11.5264 24.766 11.6099 24.7442 11.6896C24.7225 11.7693 24.6836 11.8433 24.6303 11.9065C24.5771 11.9696 24.5106 12.0203 24.4357 12.0551C24.3608 12.0899 24.2791 12.1079 24.1965 12.1079ZM21 9.29278C21.0919 9.29266 21.1825 9.31486 21.2639 9.35748L23.4405 10.5028L23.0239 8.07705C23.0084 7.98635 23.0152 7.89323 23.0437 7.80573C23.0721 7.71822 23.1215 7.63896 23.1874 7.57475L24.9503 5.85673L22.5165 5.5054C22.4254 5.49212 22.3389 5.45686 22.2644 5.40268C22.19 5.34849 22.1298 5.277 22.0891 5.19438L21 2.9854L19.9108 5.19211C19.8702 5.27473 19.81 5.34622 19.7356 5.40041C19.6611 5.45459 19.5746 5.48985 19.4834 5.50313L17.0474 5.85673L18.8103 7.57475C18.8762 7.63896 18.9256 7.71822 18.954 7.80573C18.9825 7.89323 18.9893 7.98635 18.9738 8.07705L18.5594 10.5028L20.7383 9.35748C20.8191 9.31522 20.9088 9.29303 21 9.29278Z" fill="#C5606A"/>
<path id="Vector_7" d="M10.093 17.0838C10.0009 17.0838 9.91012 17.0614 9.82856 17.0185L6.89651 15.477L3.96388 17.0174C3.87015 17.0667 3.7645 17.0887 3.65888 17.0811C3.55326 17.0735 3.45187 17.0365 3.3662 16.9742C3.28052 16.912 3.21396 16.827 3.17405 16.7289C3.13413 16.6308 3.12246 16.5235 3.14034 16.4192L3.70053 13.154L1.3281 10.8405C1.25321 10.7665 1.20039 10.6731 1.17555 10.5708C1.15072 10.4684 1.15485 10.3612 1.18748 10.2611C1.22011 10.1609 1.27995 10.0718 1.36032 10.0038C1.44068 9.93573 1.5384 9.89137 1.64253 9.87568L4.92137 9.39892L6.3874 6.42828C6.43959 6.33965 6.51401 6.26619 6.6033 6.21515C6.69259 6.16412 6.79366 6.13727 6.89651 6.13727C6.99935 6.13727 7.10042 6.16412 7.18971 6.21515C7.279 6.26619 7.35342 6.33965 7.40561 6.42828L8.87164 9.39892L12.1505 9.87568C12.2553 9.89099 12.3537 9.93531 12.4346 10.0036C12.5155 10.0719 12.5757 10.1615 12.6083 10.2623C12.641 10.363 12.6448 10.4709 12.6194 10.5737C12.5939 10.6765 12.5402 10.7701 12.4643 10.844L10.0925 13.1562L10.6527 16.4214C10.6666 16.5029 10.6626 16.5865 10.641 16.6662C10.6193 16.746 10.5804 16.8201 10.5271 16.8833C10.4738 16.9465 10.4073 16.9973 10.3324 17.0321C10.2574 17.0669 10.1757 17.085 10.093 17.0849V17.0838ZM6.89651 14.2681C6.98849 14.2679 7.07911 14.2903 7.16042 14.3334L9.33932 15.4787L8.92272 13.0541C8.90711 12.9633 8.91384 12.87 8.94231 12.7824C8.97079 12.6948 9.02017 12.6155 9.08618 12.5512L10.849 10.8332L8.41305 10.4796C8.32198 10.4663 8.23549 10.4312 8.16104 10.3771C8.08658 10.323 8.0264 10.2516 7.98567 10.1691L6.89651 7.96184L5.80734 10.1691C5.76661 10.2516 5.70643 10.323 5.63197 10.3771C5.55752 10.4312 5.47103 10.4663 5.37997 10.4796L2.94396 10.8332L4.70342 12.5512C4.77004 12.6151 4.82006 12.6943 4.84914 12.782C4.87821 12.8696 4.88547 12.963 4.87029 13.0541L4.45369 15.4776L6.63259 14.3322C6.7139 14.2892 6.80452 14.2668 6.89651 14.267V14.2681Z" fill="#C5606A"/>
</g>
</svg>
