<svg width="20" height="20" viewBox="0 0 20 20" fill="none" xmlns="http://www.w3.org/2000/svg">
<g id="vuesax/outline/tick-circle">
<g id="tick-circle">
<path id="Vector" d="M9.99996 18.9583C5.05829 18.9583 1.04163 14.9417 1.04163 10C1.04163 5.05833 5.05829 1.04166 9.99996 1.04166C14.9416 1.04166 18.9583 5.05833 18.9583 10C18.9583 14.9417 14.9416 18.9583 9.99996 18.9583ZM9.99996 2.29166C5.74996 2.29166 2.29163 5.75 2.29163 10C2.29163 14.25 5.74996 17.7083 9.99996 17.7083C14.25 17.7083 17.7083 14.25 17.7083 10C17.7083 5.75 14.25 2.29166 9.99996 2.29166Z" fill="#3C3C43"/>
<path id="Vector_2" d="M8.81658 12.9833C8.64991 12.9833 8.49158 12.9167 8.37491 12.8L6.01658 10.4417C5.77491 10.2 5.77491 9.80001 6.01658 9.55834C6.25824 9.31667 6.65824 9.31667 6.89991 9.55834L8.81658 11.475L13.0999 7.19167C13.3416 6.95001 13.7416 6.95001 13.9832 7.19167C14.2249 7.43334 14.2249 7.83334 13.9832 8.075L9.25824 12.8C9.14158 12.9167 8.98324 12.9833 8.81658 12.9833Z" fill="#3C3C43"/>
</g>
</g>
</svg>
