<svg width="173" height="35" viewBox="0 0 173 35" fill="none" xmlns="http://www.w3.org/2000/svg">
<g id="Travelandz logo">
<path id="Vector" d="M14.5951 0H15.3672C18.4716 0.112402 21.5521 0.965013 24.2406 2.53042C27.0826 4.1799 29.5043 6.54582 31.237 9.33668C33.739 13.3713 34.6584 18.3828 33.6349 23.0278C33.2739 24.5896 32.711 26.1504 31.6975 27.4124C30.8056 28.5419 29.3718 29.1286 27.9563 29.177C25.912 29.2556 23.9272 28.5657 22.1123 27.6811C21.5219 27.3923 20.9481 27.0706 20.3833 26.7343C19.9136 28.8179 19.4585 30.9051 18.9842 32.9877C18.7256 34.0853 17.7048 34.9205 16.5863 35H16.2875C15.2823 34.9543 14.33 34.3073 13.9535 33.3688C13.7041 32.8187 13.7772 32.2027 13.7004 31.6188C13.4537 29.5298 12.7445 27.4736 11.5255 25.7492C10.6592 24.5228 9.52234 23.4911 8.22469 22.739C6.63279 21.8106 4.83344 21.2842 3.01673 21.0292C2.48031 20.9561 1.91647 20.936 1.43305 20.6655C0.443362 20.1693 -0.147892 19.0078 0.0321345 17.9149C0.171952 16.8777 0.985267 15.9711 2.00602 15.7317C3.93057 15.2876 5.85877 14.8581 7.78331 14.4185C6.75707 12.8193 5.85968 11.1196 5.31412 9.29191C4.95863 8.08381 4.76033 6.80718 4.92025 5.54974C5.05367 4.47141 5.51333 3.41684 6.29924 2.65379C7.07143 1.90352 8.04558 1.4 9.03983 1.00796C10.8081 0.328982 12.7062 0.0374674 14.5951 0ZM19.8907 11.6898C15.8644 12.6018 11.8371 13.5138 7.81072 14.4286C9.43736 16.927 11.4131 19.1815 13.535 21.2687C15.6222 23.3056 17.8748 25.1936 20.3733 26.7087C21.2533 22.7747 22.1278 18.8397 23.0088 14.9056C23.187 14.1736 23.0389 13.3713 22.6003 12.7572C22.0163 11.9055 20.9005 11.4595 19.8907 11.6898Z" fill="#EC6274"/>
<path id="Union" fill-rule="evenodd" clip-rule="evenodd" d="M115.01 9.00091C114.142 9 113.274 9 112.407 9C112.406 13.2147 112.406 17.4294 112.406 21.6445V21.6446V21.6447V21.6449V21.645V21.6451V21.6452V21.6454V21.6455L112.406 25.8612C113.274 25.8612 114.142 25.8612 115.011 25.8603C115.011 23.0503 115.011 20.2402 115.011 17.4303C115.011 14.6203 115.011 11.8105 115.01 9.00091ZM160.023 9.00046C159.583 9.00046 159.144 9.00046 158.705 9L158.704 10.006V10.0063V10.0067V10.007V10.0074V10.0077V10.0081V10.0085V10.0088C158.703 11.6837 158.702 13.3581 158.705 15.0332C157.456 13.5591 155.394 12.8856 153.501 13.1598C151.897 13.3709 150.409 14.3112 149.528 15.6692C148.724 16.8599 148.396 18.323 148.445 19.7476C148.461 21.5671 149.182 23.4121 150.554 24.6349C151.673 25.6428 153.202 26.1564 154.703 26.0586C156.253 26.0084 157.783 25.2572 158.705 24.0007C158.702 24.4513 158.703 24.9025 158.703 25.3538C158.703 25.5229 158.704 25.6921 158.704 25.8612C159.583 25.8612 160.463 25.8612 161.343 25.8603C161.343 20.2402 161.343 14.6201 161.342 9.00091C160.902 9.00046 160.463 9.00046 160.023 9.00046ZM151.801 17.0418C152.333 16.2047 153.222 15.6125 154.197 15.4325C155.586 15.1465 157.113 15.7441 157.916 16.9184C158.686 17.9702 158.841 19.3602 158.61 20.6158C158.365 21.9299 157.448 23.1435 156.162 23.5858C154.806 24.0948 153.18 23.6817 152.218 22.6043C151.599 21.9217 151.23 21.0316 151.145 20.1168C151.04 19.0604 151.197 17.9373 151.801 17.0418ZM46.2668 12.1529C46.2668 11.4447 46.2668 10.7365 46.2678 10.0283C48.1087 10.0287 49.9496 10.0287 51.7905 10.0287C53.6315 10.0287 55.4724 10.0287 57.3133 10.0292V12.1538C56.713 12.1542 56.1125 12.1541 55.5119 12.154H55.5119H55.5119H55.5119H55.5119H55.5119H55.5118H55.5118C54.711 12.1539 53.9102 12.1537 53.1097 12.1548V25.8614H50.4943C50.4938 23.5768 50.4938 21.2925 50.4938 19.0081C50.4938 16.7237 50.4938 14.4394 50.4933 12.1548C49.7253 12.1533 48.957 12.1534 48.1886 12.1535H48.1885H48.1885H48.1885H48.1884H48.1884H48.1884H48.1884C47.5479 12.1537 46.9074 12.1538 46.2668 12.1529ZM66.5183 13.0949C66.0916 13.1077 65.6621 13.136 65.2472 13.2466C64.2109 13.4924 63.3117 14.1897 62.7606 15.0944C62.763 14.7155 62.7627 14.3365 62.7624 13.9576V13.9568C62.7623 13.7402 62.7621 13.5235 62.7625 13.3069C62.1837 13.3063 61.6049 13.3065 61.0262 13.3067L60.158 13.3069C60.157 15.6981 60.1571 18.0893 60.1573 20.4806C60.1574 22.2738 60.1575 24.0671 60.1571 25.8603C61.0253 25.8612 61.8934 25.8612 62.7625 25.8612C62.7635 24.9669 62.7629 24.0725 62.7624 23.1781C62.7614 21.7623 62.7605 20.3465 62.7661 18.9307C62.8018 18.0287 62.9726 17.0016 63.7284 16.4103C64.5115 15.7852 65.5661 15.7752 66.5202 15.798C66.5198 15.4705 66.52 15.1429 66.5201 14.8153V14.814C66.5204 14.241 66.5207 13.6679 66.5183 13.0949ZM71.243 13.8737C72.4529 13.1563 73.9251 12.9571 75.3014 13.1929C76.5643 13.4022 77.7249 14.114 78.5272 15.1046C78.5241 14.5912 78.525 14.0777 78.5259 13.5648V13.5638L78.5263 13.3071L79.4018 13.3069C79.9854 13.3067 80.569 13.3065 81.1527 13.3071C81.1536 17.4916 81.1536 21.676 81.1527 25.8614C80.2772 25.8614 79.4009 25.8614 78.5254 25.8605C78.5257 25.6372 78.5256 25.4138 78.5254 25.1905C78.5252 24.7997 78.5249 24.409 78.5272 24.0182C77.6381 25.1468 76.2792 25.8898 74.849 26.0296C73.5834 26.1749 72.261 25.9236 71.1772 25.24C69.6922 24.3317 68.7053 22.7315 68.3928 21.0354C68.168 19.7881 68.2082 18.4804 68.5838 17.2649C69.0197 15.864 69.9609 14.6048 71.243 13.8737ZM74.054 15.4254C73.0771 15.5944 72.1834 16.1775 71.6405 17.0082C70.968 17.9896 70.8227 19.2461 70.9999 20.4003C71.1845 21.6285 71.9193 22.8019 73.0387 23.3785C74.0421 23.9213 75.3032 23.9396 76.3276 23.4388C77.045 23.1035 77.6253 22.5113 77.9981 21.8168C78.4916 20.9121 78.6058 19.8411 78.4761 18.8304C78.3481 17.7877 77.8199 16.787 76.9892 16.1364C76.1704 15.4958 75.0747 15.2353 74.054 15.4254ZM106.904 13.9961C105.502 13.1271 103.764 12.9388 102.161 13.2194C100.658 13.4826 99.2419 14.326 98.3866 15.6018C97.4133 17.0118 97.1337 18.7984 97.3073 20.4771C97.4462 21.9008 98.0411 23.2954 99.0592 24.3106C100.086 25.3579 101.524 25.9555 102.98 26.0478C104.425 26.1484 105.954 25.8833 107.15 25.0225C108.156 24.317 108.924 23.2853 109.301 22.1156C108.364 22.1129 107.427 22.1138 106.491 22.1147C106.25 22.567 105.942 22.9947 105.52 23.2926C104.793 23.8208 103.843 23.9424 102.97 23.8327C101.982 23.7157 101.059 23.1427 100.519 22.3066C100.177 21.7884 100.012 21.1743 99.9575 20.5612C101.433 20.5603 102.908 20.5606 104.384 20.561C106.105 20.5613 107.826 20.5617 109.547 20.5602C109.71 19.332 109.668 18.0499 109.237 16.8775C108.811 15.6931 107.988 14.6459 106.904 13.9961ZM99.9776 18.4456C100.091 17.6058 100.434 16.7733 101.071 16.1976C102.38 14.9474 104.645 15.0242 105.96 16.225C106.59 16.7797 106.905 17.6186 106.919 18.4465C106.207 18.4465 105.495 18.4469 104.783 18.4472C103.181 18.448 101.58 18.4488 99.9776 18.4456ZM122.622 13.1929C124.033 12.9553 125.565 13.1509 126.771 13.9615C127.256 14.2694 127.685 14.6605 128.045 15.1074C128.043 14.6795 128.044 14.2511 128.044 13.8226V13.8226V13.8225V13.8224L128.045 13.3071C128.628 13.3065 129.211 13.3067 129.795 13.3069H129.795H129.795H129.796L130.672 13.3071V25.8615C130.088 25.8608 129.504 25.8611 128.92 25.8613L128.045 25.8615L128.044 25.3329V25.3328V25.3326V25.3325C128.044 24.8932 128.043 24.4544 128.045 24.0155C127.084 25.2455 125.562 26.0049 124.004 26.0588C122.546 26.1566 121.061 25.6668 119.962 24.7027C118.778 23.6792 118.046 22.1869 117.846 20.6444C117.635 19.0132 117.859 17.2759 118.739 15.8604C119.571 14.4696 121.021 13.4643 122.622 13.1929ZM123.927 15.3779C122.867 15.462 121.849 16.0203 121.237 16.894C120.689 17.6342 120.451 18.5617 120.448 19.4728C120.401 20.9761 121.097 22.5625 122.443 23.3164C123.849 24.1599 125.804 23.8711 126.91 22.6612C127.977 21.539 128.243 19.8521 127.91 18.3799C127.666 17.3162 126.983 16.3383 126.015 15.8156C125.383 15.4665 124.645 15.3176 123.927 15.3779ZM141.28 13.1308C139.686 12.9508 137.963 13.4753 136.906 14.7199C136.909 14.4062 136.909 14.0924 136.909 13.7787C136.909 13.6218 136.908 13.4649 136.909 13.3081C136.258 13.3067 135.606 13.3069 134.956 13.307L134.305 13.3072C134.304 16.4454 134.304 19.5836 134.304 22.7222V22.7223V22.7225L134.304 25.8615H136.909V18.8295C136.911 18.0152 137.067 17.1626 137.566 16.4992C138.027 15.8732 138.767 15.4857 139.536 15.3998C140.48 15.2774 141.527 15.4602 142.236 16.1391C142.948 16.798 143.198 17.8051 143.202 18.7445C143.203 19.9306 143.203 21.1168 143.202 22.303C143.202 23.4891 143.202 24.6753 143.202 25.8615H145.784C145.784 24.5981 145.784 23.3347 145.784 22.0713C145.784 20.8079 145.784 19.5446 145.785 18.2812C145.774 17.1352 145.489 15.9637 144.807 15.027C144.006 13.8874 142.644 13.2487 141.28 13.1308ZM83.3021 13.3069L84.0004 13.3068C84.6988 13.3067 85.3972 13.3065 86.0957 13.3079C86.44 14.2987 86.7841 15.2895 87.1282 16.2804L87.1311 16.2886L87.1315 16.2899C87.9673 18.6965 88.8032 21.1032 89.6414 23.509C90.2323 21.8071 90.8237 20.1051 91.4151 18.4031L91.4158 18.4013C92.0057 16.7035 92.5957 15.0057 93.1852 13.3079C93.7621 13.3061 94.3394 13.3062 94.9168 13.3063C95.2631 13.3063 95.6096 13.3064 95.956 13.306C94.9504 15.9468 93.9441 18.5872 92.9378 21.2278L92.9283 21.2527C92.3428 22.7888 91.7574 24.325 91.172 25.8613H88.0632C87.2013 23.5873 86.3388 21.3137 85.4764 19.0402C84.7515 17.129 84.0266 15.218 83.3021 13.3069ZM166.446 13.3069C165.72 13.307 164.993 13.3072 164.267 13.3072C164.266 14.0154 164.266 14.7236 164.267 15.4318C165.082 15.4322 165.897 15.4321 166.711 15.432C167.798 15.4319 168.885 15.4317 169.971 15.4327C168.378 17.7475 166.786 20.0623 165.195 22.377C165.082 22.556 164.958 22.7287 164.834 22.9012C164.634 23.1788 164.435 23.4561 164.281 23.7587C164.257 24.1877 164.262 24.618 164.266 25.0484C164.269 25.3195 164.271 25.5906 164.267 25.8615C165.374 25.8601 166.481 25.8608 167.587 25.8615C169.386 25.8627 171.184 25.8639 172.982 25.856V23.7377C172.033 23.7359 171.084 23.7361 170.135 23.7363C169.186 23.7366 168.237 23.7368 167.288 23.735C167.952 22.7616 168.617 21.7901 169.283 20.8185C169.67 20.2549 170.056 19.6913 170.442 19.1274C170.758 18.6571 171.081 18.1907 171.403 17.7243C171.929 16.9647 172.455 16.205 172.951 15.4282C172.981 15.0522 172.976 14.6745 172.972 14.2964C172.968 13.9714 172.965 13.6462 172.982 13.3218V13.309C170.804 13.3062 168.625 13.3066 166.446 13.3069Z" fill="#EC6274"/>
</g>
</svg>
