<svg width="16" height="17" viewBox="0 0 16 17" fill="none" xmlns="http://www.w3.org/2000/svg">
<g id="Icon/Social/Instagram Copy 3">
<path id="Combined Shape" fill-rule="evenodd" clip-rule="evenodd" d="M3.5 1.75656C3.5 2.72669 2.7165 3.51313 1.75 3.51313C0.783502 3.51313 0 2.72669 0 1.75656C0 0.78644 0.783502 0 1.75 0C2.7165 0 3.5 0.78644 3.5 1.75656ZM0 5.01837H3.578V16.0596H0V5.01837ZM13.324 5.14785C13.3113 5.14384 13.2989 5.13971 13.2864 5.13558C13.2616 5.12733 13.2367 5.11908 13.21 5.11172C13.162 5.10067 13.114 5.09164 13.065 5.08361C12.875 5.04547 12.667 5.01837 12.423 5.01837C10.337 5.01837 9.014 6.54106 8.578 7.12925V5.01837H5V16.0596H8.578V10.0371C8.578 10.0371 11.282 6.25699 12.423 9.03337V16.0596H16V8.60878C16 6.94055 14.861 5.55035 13.324 5.14785Z" fill="#5F5F60"/>
</g>
</svg>
