<svg width="20" height="21" viewBox="0 0 20 21" fill="none" xmlns="http://www.w3.org/2000/svg">
<g id="vuesax/outline/received">
<g id="received">
<path id="Vector" d="M15.8334 5.29172C15.9917 5.29172 16.15 5.35005 16.275 5.47505C16.5167 5.71671 16.5167 6.11672 16.275 6.35838L4.60838 18.025C4.36672 18.2667 3.96671 18.2667 3.72505 18.025C3.48338 17.7834 3.48338 17.3834 3.72505 17.1417L15.3917 5.47505C15.5167 5.35005 15.675 5.29172 15.8334 5.29172Z" fill="white"/>
<path id="Vector_2" d="M7.27499 5.29176H15.8333C16.175 5.29176 16.4583 5.5751 16.4583 5.91676V14.4751C16.4583 14.8168 16.175 15.1001 15.8333 15.1001C15.4917 15.1001 15.2083 14.8168 15.2083 14.4751V6.54176H7.27499C6.93333 6.54176 6.64999 6.25843 6.64999 5.91676C6.64999 5.5751 6.93333 5.29176 7.27499 5.29176Z" fill="white"/>
</g>
</g>
</svg>
